<svg width="24" height="24" viewBox="0 0 24 24" fill="none" xmlns="http://www.w3.org/2000/svg">
<g clip-path="url(#clip0_366_3752)">
<path fill-rule="evenodd" clip-rule="evenodd" d="M20.5433 6.44729C21.0603 7.00167 21.0134 7.85525 20.4385 8.3538L13.1736 14.6538C12.624 15.1304 11.7847 15.1129 11.257 14.6137L8.3219 11.891C7.76997 11.3688 7.76149 10.5141 8.30298 9.98185C8.84446 9.44963 9.73085 9.44146 10.2828 9.9636L12.2792 11.7982L18.5662 6.34622C19.1411 5.84766 20.0263 5.89291 20.5433 6.44729Z" fill="#84CDF4"/>
<path fill-rule="evenodd" clip-rule="evenodd" d="M19.5145 6.00006C19.1767 5.99703 18.8367 6.1112 18.5657 6.34622L17.1631 7.56253L17.5714 7.7727V10.8397L20 8.73363V7C20 6.76785 19.9372 6.5403 19.8186 6.34281C19.7386 6.20947 19.6353 6.09338 19.5145 6.00006ZM17.2704 4.82232L12.0431 2.13183C11.8745 2.04513 11.6885 2 11.5 2C11.3115 2 11.1255 2.04513 10.9569 2.13183L3.67118 5.88183C3.4695 5.98571 3.2999 6.14533 3.18136 6.34281C3.06282 6.5403 3.00003 6.76785 3 7V13.25C3 19.1863 9.8173 22 11.5 22C13.1827 22 20 19.1863 20 13.25V11.3809L17.5653 13.4923C17.3628 17.448 12.2462 19.4521 11.5 19.5C10.7387 19.4512 5.42857 17.3662 5.42857 13.25V7.7727L11.5 4.6477L15.2474 6.57652L17.2554 4.83523C17.2604 4.83091 17.2654 4.82661 17.2704 4.82232Z" fill="#84CDF4"/>
</g>
<defs>
<clipPath id="clip0_366_3752">
<rect width="24" height="24" fill="white"/>
</clipPath>
</defs>
</svg>
