<svg width="144" height="54" viewBox="0 0 144 54" fill="none" xmlns="http://www.w3.org/2000/svg">
<path fill-rule="evenodd" clip-rule="evenodd" d="M144 16.1646V50.5085C144 52.3876 142.475 53.9126 140.596 53.9126H26.9606C25.6738 53.9126 24.4926 53.1841 23.9173 52.0301L0.364406 4.92429C-0.830431 2.53802 1.06565 -0.232914 3.72425 0.0155844L140.913 12.7741C142.662 12.9375 144 14.4081 144 16.1646ZM89.5344 27.5924V26.6801H92.9385V40.2965H89.5344V39.3842C88.5336 39.9629 87.3694 40.2965 86.1303 40.2965C82.3688 40.2965 79.3221 37.2498 79.3221 33.4883C79.3221 29.7267 82.3688 26.6801 86.1303 26.6801C87.3694 26.6801 88.5336 27.0137 89.5344 27.5924ZM82.7262 33.4883C82.7262 35.3673 84.2513 36.8924 86.1303 36.8924C88.0094 36.8924 89.5344 35.3673 89.5344 33.4883C89.5344 31.6092 88.0094 30.0842 86.1303 30.0842C84.2513 30.0842 82.7262 31.6092 82.7262 33.4883ZM120.171 26.6801V27.5924C119.171 27.0137 118.006 26.6801 116.767 26.6801C113.006 26.6801 109.959 29.7267 109.959 33.4883C109.959 37.2498 113.006 40.2965 116.767 40.2965C118.006 40.2965 119.171 39.9629 120.171 39.3842V40.2965C120.171 42.1755 118.646 43.7006 116.767 43.7006C114.888 43.7006 113.363 42.1755 113.363 40.2965H109.959C109.959 44.058 113.006 47.1046 116.767 47.1046C120.529 47.1046 123.575 44.058 123.575 40.2965V26.6801H120.171ZM116.767 36.8924C114.888 36.8924 113.363 35.3673 113.363 33.4883C113.363 31.6092 114.888 30.0842 116.767 30.0842C118.646 30.0842 120.171 31.6092 120.171 33.4883C120.171 35.3673 118.646 36.8924 116.767 36.8924ZM98.0447 30.0842L108.257 26.6801V33.4883H104.853L108.257 40.2965H104.853L101.449 33.4883H98.0447V40.2965H94.6406V26.6801H98.0447V30.0842ZM48.6853 30.0842V26.6801H45.2812V40.2965H48.6853V33.4883H58.8976V26.6801L48.6853 30.0842ZM29.9628 33.4883C29.9628 29.7267 33.0095 26.6801 36.771 26.6801C40.5325 26.6801 43.5792 29.7267 43.5792 33.4883C43.5792 37.2498 40.5325 40.2965 36.771 40.2965C33.0095 40.2965 29.9628 37.2498 29.9628 33.4883ZM33.3669 33.4883C33.3669 35.3673 34.8919 36.8924 36.771 36.8924C38.65 36.8924 40.1751 35.3673 40.1751 33.4883C40.1751 31.6092 38.65 30.0842 36.771 30.0842C34.8919 30.0842 33.3669 31.6092 33.3669 33.4883ZM70.812 28.9506V26.6801L64.0038 28.9506V26.6801H60.5997V40.2965H64.0038V33.4883C64.0038 32.5487 64.7663 31.7862 65.7058 31.7862C66.6454 31.7862 67.4079 32.5487 67.4079 33.4883V40.2965H70.812V33.4883C70.812 32.5487 71.5745 31.7862 72.514 31.7862C73.4536 31.7862 74.2161 32.5487 74.2161 33.4883V40.2965H77.6202V26.6801L70.812 28.9506ZM128.682 24.9781C128.682 25.9181 127.92 26.6802 126.98 26.6802C126.04 26.6802 125.278 25.9181 125.278 24.9781C125.278 24.0381 126.04 23.2761 126.98 23.2761C127.92 23.2761 128.682 24.0381 128.682 24.9781ZM125.278 40.2961H128.682V28.9503L125.278 30.0839V40.2961ZM133.788 23.2761V35.1904H137.192V40.2966L130.384 38.026V23.2761H133.788Z" fill="white"/>
</svg>
