<svg width="144" height="54" viewBox="0 0 144 54" fill="none" xmlns="http://www.w3.org/2000/svg">
<path d="M79.0041 18.999V20.071C77.8281 19.391 76.4601 18.999 75.004 18.999C70.584 18.999 67.0039 22.5791 67.0039 26.9992C67.0039 31.4192 70.584 34.9993 75.004 34.9993C76.4601 34.9993 77.8281 34.6073 79.0041 33.9273V34.9993H83.0042V18.999H79.0041ZM75.004 30.9992C72.796 30.9992 71.004 29.2072 71.004 26.9992C71.004 24.7911 72.796 22.9991 75.004 22.9991C77.2121 22.9991 79.0041 24.7911 79.0041 26.9992C79.0041 29.2072 77.2121 30.9992 75.004 30.9992Z" fill="white"/>
<path d="M115.001 18.999V20.071C113.825 19.391 112.457 18.999 111.001 18.999C106.581 18.999 103.001 22.5791 103.001 26.9992C103.001 31.4192 106.581 34.9993 111.001 34.9993C112.457 34.9993 113.825 34.6073 115.001 33.9273V34.9993C115.001 37.2073 113.209 38.9993 111.001 38.9993C108.793 38.9993 107.001 37.2073 107.001 34.9993H103.001C103.001 39.4194 106.581 42.9994 111.001 42.9994C115.421 42.9994 119.001 39.4194 119.001 34.9993V18.999H115.001ZM111.001 30.9992C108.793 30.9992 107.001 29.2072 107.001 26.9992C107.001 24.7911 108.793 22.9991 111.001 22.9991C113.209 22.9991 115.001 24.7911 115.001 26.9992C115.001 29.2072 113.209 30.9992 111.001 30.9992Z" fill="white"/>
<path d="M100.998 18.999L88.9981 22.9991V18.999H84.998V34.9993H88.9981V26.9992H92.9982L96.9982 34.9993H100.998L96.9982 26.9992H100.998V18.999Z" fill="white"/>
<path d="M31.003 22.9991V18.999H27.0029V34.9993H31.003V26.9992H43.0032V18.999L31.003 22.9991Z" fill="white"/>
<path d="M17.0001 18.999C12.5801 18.999 9 22.5791 9 26.9992C9 31.4192 12.5801 34.9993 17.0001 34.9993C21.4202 34.9993 25.0003 31.4192 25.0003 26.9992C25.0003 22.5791 21.4202 18.999 17.0001 18.999ZM17.0001 30.9992C14.7921 30.9992 13.0001 29.2072 13.0001 26.9992C13.0001 24.7911 14.7921 22.9991 17.0001 22.9991C19.2082 22.9991 21.0002 24.7911 21.0002 26.9992C21.0002 29.2072 19.2082 30.9992 17.0001 30.9992Z" fill="white"/>
<path d="M56.9973 21.6671V18.999L48.9971 21.6671V18.999H44.9971V34.9993H48.9971V26.9992C48.9971 25.8951 49.8931 24.9991 50.9972 24.9991C52.1012 24.9991 52.9972 25.8951 52.9972 26.9992V34.9993H56.9973V26.9992C56.9973 25.8951 57.8933 24.9991 58.9973 24.9991C60.1013 24.9991 60.9973 25.8951 60.9973 26.9992V34.9993H64.9974V18.999L56.9973 21.6671Z" fill="white"/>
<path d="M123.004 19.0001C124.109 19.0001 125.004 18.1046 125.004 17C125.004 15.8954 124.109 15 123.004 15C121.899 15 121.004 15.8954 121.004 17C121.004 18.1046 121.899 19.0001 123.004 19.0001Z" fill="white"/>
<path d="M121.004 35.0021H125.004V21.6699L121.004 23.0019V35.0021Z" fill="white"/>
<path d="M131.001 29.0002V15H127.001V32.3323L135.001 35.0003V29.0002H131.001Z" fill="white"/>
</svg>
