<svg width="80" height="30" viewBox="0 0 80 30" fill="none" xmlns="http://www.w3.org/2000/svg">
<path fill-rule="evenodd" clip-rule="evenodd" d="M80 8.98027V28.0601C80 29.104 79.1528 29.9512 78.1088 29.9512H14.9785C14.2637 29.9512 13.6075 29.5465 13.2878 28.9054L0.202989 2.73569C-0.460804 1.41 0.592565 -0.129396 2.06955 0.00865795L78.2847 7.09668C79.2568 7.18746 80 8.00443 80 8.98027ZM49.7413 15.3294V14.8225H51.6325V22.3871H49.7413V21.8803C49.1853 22.2018 48.5386 22.3871 47.8502 22.3871C45.7605 22.3871 44.0679 20.6946 44.0679 18.6048C44.0679 16.5151 45.7605 14.8225 47.8502 14.8225C48.5386 14.8225 49.1853 15.0079 49.7413 15.3294ZM45.959 18.6048C45.959 19.6487 46.8063 20.496 47.8502 20.496C48.8941 20.496 49.7413 19.6487 49.7413 18.6048C49.7413 17.5609 48.8941 16.7137 47.8502 16.7137C46.8063 16.7137 45.959 17.5609 45.959 18.6048ZM66.7617 14.8225V15.3294C66.2057 15.0079 65.5589 14.8225 64.8706 14.8225C62.7808 14.8225 61.0883 16.5151 61.0883 18.6048C61.0883 20.6946 62.7808 22.3871 64.8706 22.3871C65.5589 22.3871 66.2057 22.2018 66.7617 21.8803V22.3871C66.7617 23.431 65.9145 24.2783 64.8706 24.2783C63.8266 24.2783 62.9794 23.431 62.9794 22.3871H61.0883C61.0883 24.4768 62.7808 26.1694 64.8706 26.1694C66.9603 26.1694 68.6528 24.4768 68.6528 22.3871V14.8225H66.7617ZM64.8706 20.496C63.8266 20.496 62.9794 19.6487 62.9794 18.6048C62.9794 17.5609 63.8266 16.7137 64.8706 16.7137C65.9145 16.7137 66.7617 17.5609 66.7617 18.6048C66.7617 19.6487 65.9145 20.496 64.8706 20.496ZM54.4692 16.7137L60.1427 14.8225V18.6048H58.2515L60.1427 22.3871H58.2515L56.3604 18.6048H54.4692V22.3871H52.5781V14.8225H54.4692V16.7137ZM27.0476 16.7137V14.8225H25.1564V22.3871H27.0476V18.6048H32.721V14.8225L27.0476 16.7137ZM16.6462 18.6048C16.6462 16.5151 18.3388 14.8225 20.4285 14.8225C22.5182 14.8225 24.2108 16.5151 24.2108 18.6048C24.2108 20.6946 22.5182 22.3871 20.4285 22.3871C18.3388 22.3871 16.6462 20.6946 16.6462 18.6048ZM18.5374 18.6048C18.5374 19.6487 19.3846 20.496 20.4285 20.496C21.4724 20.496 22.3197 19.6487 22.3197 18.6048C22.3197 17.5609 21.4724 16.7137 20.4285 16.7137C19.3846 16.7137 18.5374 17.5609 18.5374 18.6048ZM39.34 16.0839V14.8225L35.5577 16.0839V14.8225H33.6666V22.3871H35.5577V18.6048C35.5577 18.0829 35.9814 17.6593 36.5033 17.6593C37.0253 17.6593 37.4489 18.0829 37.4489 18.6048V22.3871H39.34V18.6048C39.34 18.0829 39.7637 17.6593 40.2856 17.6593C40.8076 17.6593 41.2312 18.0829 41.2312 18.6048V22.3871H43.1223V14.8225L39.34 16.0839ZM71.4896 13.877C71.4896 14.3992 71.0662 14.8226 70.544 14.8226C70.0218 14.8226 69.5984 14.3992 69.5984 13.877C69.5984 13.3548 70.0218 12.9314 70.544 12.9314C71.0662 12.9314 71.4896 13.3548 71.4896 13.877ZM69.5984 22.387H71.4896V16.0838L69.5984 16.7135V22.387ZM74.3265 12.9314V19.5505H76.2176V22.3872L72.4353 21.1258V12.9314H74.3265Z" fill="#080A0D" fill-opacity="0.2"/>
</svg>
